<svg width="111" height="52" viewBox="0 0 111 52" fill="none" xmlns="http://www.w3.org/2000/svg">
<g filter="url(#filter0_d_418_2132)">
<g filter="url(#filter1_d_418_2132)">
<mask id="path-1-outside-1_418_2132" maskUnits="userSpaceOnUse" x="2" y="9" width="103" height="39" fill="black">
<rect fill="white" x="2" y="9" width="103" height="39"/>
<path d="M3.32469 12.9236H10.4686V23.8996L20.8768 23.8286V13.0182L28.0207 12.9709V24.1125H29.2508L29.8185 30.6176H28.0207V41.0259C27.5476 42.4452 26.9562 43.3914 26.2466 43.8646C25.5369 44.3219 24.4251 44.6767 22.9112 44.929C21.413 45.1656 19.907 45.2839 18.393 45.2839L18.3457 39.0389C19.7966 38.9443 20.6955 38.345 21.0424 37.2411V30.6413L12.361 30.6176L10.4686 27.6134V44.5269L3.372 45.7333L3.32469 12.9236ZM44.2955 10.4634L50.1147 12.6634L49.4287 14.9343H58.7961L57.8262 21.9362L52.7167 21.9598L60.8305 43.699L54.5618 45.8516L46.2352 23.6157L36.9387 45.6623L30.5755 43.7226L39.7537 21.8652L33.0593 21.8416L33.5797 14.9343H42.4267L44.2955 10.4634ZM47.2997 34.5917L50.9189 38.5658L44.2245 45.2839L40.5816 41.3571L47.2997 34.5917ZM81.4578 12.0956L86.3544 16.9923L75.8515 27.5661C79.384 33.9846 81.647 37.2884 82.6405 37.4777C83.6498 37.6669 84.8484 37.178 86.2361 36.011L88.8145 42.3743C87.0956 44.2194 85.4555 45.2208 83.8943 45.3785C82.3488 45.552 80.7954 45.3548 79.2342 44.7871C77.6729 44.2194 74.7791 39.9772 70.5527 32.0606L69.1098 33.6219V45.0237H62.368V12.8289H69.0861L69.1098 24.4436L81.4578 12.0956ZM90.8725 12.8289H103.765L102.818 19.6416H100.737V38.4475H103.386L103.008 45.0473H90.1156L90.7543 38.4002L93.5219 38.4239L93.5692 21.3212L96.5498 19.6416H90.1865L90.8725 12.8289Z"/>
</mask>
<path d="M3.32469 12.9236H10.4686V23.8996L20.8768 23.8286V13.0182L28.0207 12.9709V24.1125H29.2508L29.8185 30.6176H28.0207V41.0259C27.5476 42.4452 26.9562 43.3914 26.2466 43.8646C25.5369 44.3219 24.4251 44.6767 22.9112 44.929C21.413 45.1656 19.907 45.2839 18.393 45.2839L18.3457 39.0389C19.7966 38.9443 20.6955 38.345 21.0424 37.2411V30.6413L12.361 30.6176L10.4686 27.6134V44.5269L3.372 45.7333L3.32469 12.9236ZM44.2955 10.4634L50.1147 12.6634L49.4287 14.9343H58.7961L57.8262 21.9362L52.7167 21.9598L60.8305 43.699L54.5618 45.8516L46.2352 23.6157L36.9387 45.6623L30.5755 43.7226L39.7537 21.8652L33.0593 21.8416L33.5797 14.9343H42.4267L44.2955 10.4634ZM47.2997 34.5917L50.9189 38.5658L44.2245 45.2839L40.5816 41.3571L47.2997 34.5917ZM81.4578 12.0956L86.3544 16.9923L75.8515 27.5661C79.384 33.9846 81.647 37.2884 82.6405 37.4777C83.6498 37.6669 84.8484 37.178 86.2361 36.011L88.8145 42.3743C87.0956 44.2194 85.4555 45.2208 83.8943 45.3785C82.3488 45.552 80.7954 45.3548 79.2342 44.7871C77.6729 44.2194 74.7791 39.9772 70.5527 32.0606L69.1098 33.6219V45.0237H62.368V12.8289H69.0861L69.1098 24.4436L81.4578 12.0956ZM90.8725 12.8289H103.765L102.818 19.6416H100.737V38.4475H103.386L103.008 45.0473H90.1156L90.7543 38.4002L93.5219 38.4239L93.5692 21.3212L96.5498 19.6416H90.1865L90.8725 12.8289Z" fill="black"/>
<path d="M3.32469 12.9236V11.9143H2.31395L2.3154 12.925L3.32469 12.9236ZM10.4686 12.9236H11.4778V11.9143H10.4686V12.9236ZM10.4686 23.8996H9.45927V24.9158L10.4754 24.9088L10.4686 23.8996ZM20.8768 23.8286L20.8837 24.8379L21.8861 24.831V23.8286H20.8768ZM20.8768 13.0182L20.8702 12.0089L19.8676 12.0156V13.0182H20.8768ZM28.0207 12.9709H29.03V11.9549L28.014 11.9616L28.0207 12.9709ZM28.0207 24.1125H27.0114V25.1218H28.0207V24.1125ZM29.2508 24.1125L30.2562 24.0247L30.1758 23.1032H29.2508V24.1125ZM29.8185 30.6176V31.6269H30.9197L30.824 30.5299L29.8185 30.6176ZM28.0207 30.6176V29.6084H27.0114V30.6176H28.0207ZM28.0207 41.0259L28.9782 41.3451L29.03 41.1897V41.0259H28.0207ZM26.2466 43.8646L26.7933 44.7129L26.7999 44.7087L26.8064 44.7043L26.2466 43.8646ZM22.9112 44.929L23.0686 45.926L23.0771 45.9246L22.9112 44.929ZM18.393 45.2839L17.3838 45.2915L17.3914 46.2932H18.393V45.2839ZM18.3457 39.0389L18.2801 38.0317L17.3293 38.0938L17.3365 39.0465L18.3457 39.0389ZM21.0424 37.2411L22.0053 37.5437L22.0517 37.396V37.2411H21.0424ZM21.0424 30.6413H22.0517V29.6348L21.0452 29.632L21.0424 30.6413ZM12.361 30.6176L11.507 31.1556L11.8029 31.6254L12.3582 31.6269L12.361 30.6176ZM10.4686 27.6134L11.3225 27.0755L9.45927 24.1176V27.6134H10.4686ZM10.4686 44.5269L10.6377 45.5219L11.4778 45.3791V44.5269H10.4686ZM3.372 45.7333L2.36271 45.7348L2.36444 46.9284L3.54115 46.7283L3.372 45.7333ZM3.32469 13.9329H10.4686V11.9143H3.32469V13.9329ZM9.45927 12.9236V23.8996H11.4778V12.9236H9.45927ZM10.4754 24.9088L20.8837 24.8379L20.87 22.8193L10.4617 22.8903L10.4754 24.9088ZM21.8861 23.8286V13.0182H19.8676V23.8286H21.8861ZM20.8835 14.0275L28.0274 13.9801L28.014 11.9616L20.8702 12.0089L20.8835 14.0275ZM27.0114 12.9709V24.1125H29.03V12.9709H27.0114ZM28.0207 25.1218H29.2508V23.1032H28.0207V25.1218ZM28.2453 24.2002L28.813 30.7054L30.824 30.5299L30.2562 24.0247L28.2453 24.2002ZM29.8185 29.6084H28.0207V31.6269H29.8185V29.6084ZM27.0114 30.6176V41.0259H29.03V30.6176H27.0114ZM27.0632 40.7068C26.6133 42.0566 26.114 42.7399 25.6867 43.0248L26.8064 44.7043C27.7984 44.043 28.482 42.8338 28.9782 41.3451L27.0632 40.7068ZM25.6998 43.0162C25.1649 43.3609 24.2164 43.6883 22.7453 43.9335L23.0771 45.9246C24.6338 45.6651 25.909 45.2828 26.7933 44.7129L25.6998 43.0162ZM22.7538 43.9321C21.3076 44.1604 19.8542 44.2746 18.393 44.2746V46.2932C19.9598 46.2932 21.5185 46.1707 23.0686 45.926L22.7538 43.9321ZM19.4023 45.2762L19.355 39.0312L17.3365 39.0465L17.3838 45.2915L19.4023 45.2762ZM18.4114 40.046C19.2546 39.9911 20.0289 39.7842 20.6679 39.3583C21.3232 38.9214 21.768 38.2987 22.0053 37.5437L20.0796 36.9385C19.9699 37.2874 19.7918 37.5163 19.5482 37.6787C19.2883 37.852 18.8878 37.9921 18.2801 38.0317L18.4114 40.046ZM22.0517 37.2411V30.6413H20.0331V37.2411H22.0517ZM21.0452 29.632L12.3637 29.6084L12.3582 31.6269L21.0397 31.6506L21.0452 29.632ZM13.215 30.0797L11.3225 27.0755L9.61458 28.1514L11.507 31.1556L13.215 30.0797ZM9.45927 27.6134V44.5269H11.4778V27.6134H9.45927ZM10.2994 43.5319L3.20285 44.7383L3.54115 46.7283L10.6377 45.5219L10.2994 43.5319ZM4.38129 45.7319L4.33398 12.9221L2.3154 12.925L2.36271 45.7348L4.38129 45.7319ZM44.2955 10.4634L44.6524 9.51935L43.7403 9.17454L43.3643 10.0742L44.2955 10.4634ZM50.1147 12.6634L51.0808 12.9552L51.3535 12.0527L50.4716 11.7193L50.1147 12.6634ZM49.4286 14.9343L48.4625 14.6424L48.0694 15.9435H49.4286V14.9343ZM58.7961 14.9343L59.7958 15.0727L59.9548 13.925H58.7961V14.9343ZM57.8262 21.9362L57.8309 22.9455L58.7059 22.9414L58.826 22.0747L57.8262 21.9362ZM52.7167 21.9598L52.712 20.9506L51.2652 20.9573L51.7711 22.3128L52.7167 21.9598ZM60.8305 43.699L61.1582 44.6535L62.1384 44.317L61.776 43.346L60.8305 43.699ZM54.5618 45.8516L53.6166 46.2055L53.961 47.1251L54.8896 46.8062L54.5618 45.8516ZM46.2352 23.6157L47.1804 23.2618L46.2908 20.8862L45.3052 23.2236L46.2352 23.6157ZM36.9387 45.6623L36.6444 46.6278L37.5151 46.8932L37.8687 46.0545L36.9387 45.6623ZM30.5755 43.7226L29.6449 43.3319L29.2122 44.3622L30.2812 44.688L30.5755 43.7226ZM39.7537 21.8652L40.6843 22.256L41.2699 20.8613L39.7572 20.8559L39.7537 21.8652ZM33.0593 21.8416L32.0528 21.7657L31.9714 22.847L33.0557 22.8509L33.0593 21.8416ZM33.5797 14.9343V13.925H32.6436L32.5732 14.8584L33.5797 14.9343ZM42.4267 14.9343V15.9435H43.0988L43.3579 15.3235L42.4267 14.9343ZM47.2997 34.5917L48.0459 33.9121L47.3313 33.1275L46.5835 33.8806L47.2997 34.5917ZM50.9189 38.5658L51.6339 39.2782L52.3126 38.5971L51.6651 37.8862L50.9189 38.5658ZM44.2245 45.2839L43.4846 45.9703L44.1985 46.7398L44.9394 45.9963L44.2245 45.2839ZM40.5816 41.3571L39.8654 40.6459L39.1828 41.3333L39.8417 42.0435L40.5816 41.3571ZM43.9386 11.4075L49.7577 13.6074L50.4716 11.7193L44.6524 9.51935L43.9386 11.4075ZM49.1485 12.3715L48.4625 14.6424L50.3948 15.2261L51.0808 12.9552L49.1485 12.3715ZM49.4286 15.9435H58.7961V13.925H49.4286V15.9435ZM57.7964 14.7958L56.8265 21.7977L58.826 22.0747L59.7958 15.0727L57.7964 14.7958ZM57.8216 20.9269L52.712 20.9506L52.7214 22.9691L57.8309 22.9455L57.8216 20.9269ZM51.7711 22.3128L59.8849 44.0519L61.776 43.346L53.6623 21.6069L51.7711 22.3128ZM60.5027 42.7444L54.234 44.897L54.8896 46.8062L61.1582 44.6535L60.5027 42.7444ZM55.507 45.4976L47.1804 23.2618L45.29 23.9697L53.6166 46.2055L55.507 45.4976ZM45.3052 23.2236L36.0087 45.2702L37.8687 46.0545L47.1652 24.0079L45.3052 23.2236ZM37.233 44.6969L30.8698 42.7572L30.2812 44.688L36.6444 46.6278L37.233 44.6969ZM31.506 44.1134L40.6843 22.256L38.8231 21.4745L29.6449 43.3319L31.506 44.1134ZM39.7572 20.8559L33.0628 20.8323L33.0557 22.8509L39.7501 22.8745L39.7572 20.8559ZM34.0657 21.9174L34.5861 15.0101L32.5732 14.8584L32.0528 21.7657L34.0657 21.9174ZM33.5797 15.9435H42.4267V13.925H33.5797V15.9435ZM43.3579 15.3235L45.2267 10.8527L43.3643 10.0742L41.4955 14.545L43.3579 15.3235ZM46.5535 35.2713L50.1727 39.2454L51.6651 37.8862L48.0459 33.9121L46.5535 35.2713ZM50.204 37.8534L43.5096 44.5714L44.9394 45.9963L51.6339 39.2782L50.204 37.8534ZM44.9644 44.5974L41.3215 40.6707L39.8417 42.0435L43.4846 45.9703L44.9644 44.5974ZM41.2978 42.0683L48.0159 35.3029L46.5835 33.8806L39.8654 40.6459L41.2978 42.0683ZM81.4578 12.0956L82.1714 11.382L81.4578 10.6683L80.7441 11.382L81.4578 12.0956ZM86.3544 16.9923L87.0705 17.7035L87.7794 16.9899L87.0681 16.2786L86.3544 16.9923ZM75.8515 27.5661L75.1354 26.8549L74.603 27.3909L74.9673 28.0528L75.8515 27.5661ZM82.6405 37.4776L82.4517 38.4691L82.4545 38.4697L82.6405 37.4776ZM86.2361 36.011L87.1715 35.632L86.6498 34.3444L85.5865 35.2386L86.2361 36.011ZM88.8145 42.3743L89.553 43.0623L89.9916 42.5915L89.75 41.9952L88.8145 42.3743ZM83.8943 45.3785L83.7928 44.3742L83.7817 44.3755L83.8943 45.3785ZM70.5527 32.0606L71.4431 31.5853L70.7747 30.3334L69.8115 31.3756L70.5527 32.0606ZM69.1098 33.6219L68.3686 32.9368L68.1005 33.2269V33.6219H69.1098ZM69.1098 45.0237V46.0329H70.1191V45.0237H69.1098ZM62.368 45.0237H61.3588V46.0329H62.368V45.0237ZM62.368 12.8289V11.8197H61.3588V12.8289H62.368ZM69.0861 12.8289L70.0954 12.8269L70.0933 11.8197H69.0861V12.8289ZM69.1098 24.4436L68.1005 24.4457L68.1054 26.8753L69.8234 25.1573L69.1098 24.4436ZM80.7441 12.8093L85.6407 17.7059L87.0681 16.2786L82.1714 11.382L80.7441 12.8093ZM85.6383 16.281L75.1354 26.8549L76.5676 28.2774L87.0705 17.7035L85.6383 16.281ZM74.9673 28.0528C76.7387 31.2714 78.2061 33.7357 79.3655 35.4282C79.9434 36.272 80.4624 36.9501 80.9191 37.44C81.1474 37.6848 81.378 37.9021 81.609 38.0726C81.8285 38.2347 82.1152 38.405 82.4517 38.4691L82.8294 36.4862C82.9175 36.503 82.9161 36.5286 82.808 36.4487C82.7112 36.3773 82.5744 36.2553 82.3956 36.0635C82.0382 35.6801 81.5844 35.0956 81.0308 34.2875C79.9271 32.6762 78.4968 30.2793 76.7357 27.0795L74.9673 28.0528ZM82.4545 38.4697C83.9252 38.7454 85.435 38.0034 86.8857 36.7835L85.5865 35.2386C84.2617 36.3526 83.3744 36.5884 82.8265 36.4856L82.4545 38.4697ZM85.3007 36.3901L87.8791 42.7533L89.75 41.9952L87.1715 35.632L85.3007 36.3901ZM88.0761 41.6863C86.4285 43.4547 85 44.2524 83.7928 44.3743L83.9957 46.3827C85.911 46.1892 87.7627 44.984 89.553 43.0623L88.0761 41.6863ZM83.7817 44.3755C82.4013 44.5304 81.0043 44.3568 79.5791 43.8386L78.8893 45.7356C80.5866 46.3528 82.2963 46.5735 84.0068 46.3815L83.7817 44.3755ZM79.5791 43.8386C79.4256 43.7828 79.0881 43.5633 78.5539 42.9865C78.0443 42.4364 77.4358 41.6505 76.7267 40.6109C75.31 38.5341 73.5498 35.5314 71.4431 31.5853L69.6624 32.5359C71.7821 36.5065 73.582 39.5831 75.0591 41.7484C75.7969 42.83 76.4687 43.7058 77.0729 44.3582C77.6525 44.9839 78.2621 45.5076 78.8893 45.7356L79.5791 43.8386ZM69.8115 31.3756L68.3686 32.9368L69.851 34.3069L71.2939 32.7457L69.8115 31.3756ZM68.1005 33.6219V45.0237H70.1191V33.6219H68.1005ZM69.1098 44.0144H62.368V46.0329H69.1098V44.0144ZM63.3773 45.0237V12.8289H61.3588V45.0237H63.3773ZM62.368 13.8382H69.0861V11.8197H62.368V13.8382ZM68.0768 12.831L68.1005 24.4457L70.1191 24.4416L70.0954 12.8269L68.0768 12.831ZM69.8234 25.1573L82.1714 12.8093L80.7441 11.382L68.3961 23.73L69.8234 25.1573ZM90.8725 12.8289V11.8197H89.9598L89.8683 12.7278L90.8725 12.8289ZM103.765 12.8289L104.764 12.9678L104.924 11.8197H103.765V12.8289ZM102.818 19.6416V20.6509H103.697L103.818 19.7805L102.818 19.6416ZM100.737 19.6416V18.6324H99.7275V19.6416H100.737ZM100.737 38.4475H99.7275V39.4568H100.737V38.4475ZM103.386 38.4475L104.394 38.5053L104.455 37.4382H103.386V38.4475ZM103.008 45.0473V46.0566H103.961L104.015 45.1051L103.008 45.0473ZM90.1156 45.0473L89.1109 44.9508L89.0047 46.0566H90.1156V45.0473ZM90.7543 38.4002L90.7629 37.391L89.8381 37.383L89.7496 38.3037L90.7543 38.4002ZM93.5219 38.4239L93.5133 39.4331L94.5284 39.4418L94.5312 38.4267L93.5219 38.4239ZM93.5692 21.3212L93.0738 20.4419L92.5616 20.7305L92.5599 21.3184L93.5692 21.3212ZM96.5498 19.6416L97.0453 20.5209L100.397 18.6324H96.5498V19.6416ZM90.1865 19.6416L89.1823 19.5405L89.0705 20.6509H90.1865V19.6416ZM90.8725 13.8382H103.765V11.8197H90.8725V13.8382ZM102.765 12.6901L101.819 19.5028L103.818 19.7805L104.764 12.9678L102.765 12.6901ZM102.818 18.6324H100.737V20.6509H102.818V18.6324ZM99.7275 19.6416V38.4475H101.746V19.6416H99.7275ZM100.737 39.4568H103.386V37.4382H100.737V39.4568ZM102.379 38.3897L102 44.9895L104.015 45.1051L104.394 38.5053L102.379 38.3897ZM103.008 44.038H90.1156V46.0566H103.008V44.038ZM91.1202 45.1438L91.7589 38.4967L89.7496 38.3037L89.1109 44.9508L91.1202 45.1438ZM90.7456 39.4095L93.5133 39.4331L93.5305 37.4146L90.7629 37.391L90.7456 39.4095ZM94.5312 38.4267L94.5785 21.3239L92.5599 21.3184L92.5126 38.4211L94.5312 38.4267ZM94.0647 22.2005L97.0453 20.5209L96.0543 18.7623L93.0738 20.4419L94.0647 22.2005ZM96.5498 18.6324H90.1865V20.6509H96.5498V18.6324ZM91.1908 19.7428L91.8767 12.9301L89.8683 12.7278L89.1823 19.5405L91.1908 19.7428Z" fill="white" mask="url(#path-1-outside-1_418_2132)"/>
</g>
</g>
<defs>
<filter id="filter0_d_418_2132" x="-0.0185759" y="0" width="113.037" height="51.1622" filterUnits="userSpaceOnUse" color-interpolation-filters="sRGB">
<feFlood flood-opacity="0" result="BackgroundImageFix"/>
<feColorMatrix in="SourceAlpha" type="matrix" values="0 0 0 0 0 0 0 0 0 0 0 0 0 0 0 0 0 0 127 0" result="hardAlpha"/>
<feOffset dy="2.01858"/>
<feGaussianBlur stdDeviation="1.00929"/>
<feComposite in2="hardAlpha" operator="out"/>
<feColorMatrix type="matrix" values="0 0 0 0 0 0 0 0 0 0 0 0 0 0 0 0 0 0 0.25 0"/>
<feBlend mode="normal" in2="BackgroundImageFix" result="effect1_dropShadow_418_2132"/>
<feBlend mode="normal" in="SourceGraphic" in2="effect1_dropShadow_418_2132" result="shape"/>
</filter>
<filter id="filter1_d_418_2132" x="0.295389" y="9.17453" width="106.647" height="41.9877" filterUnits="userSpaceOnUse" color-interpolation-filters="sRGB">
<feFlood flood-opacity="0" result="BackgroundImageFix"/>
<feColorMatrix in="SourceAlpha" type="matrix" values="0 0 0 0 0 0 0 0 0 0 0 0 0 0 0 0 0 0 127 0" result="hardAlpha"/>
<feOffset dy="2.01858"/>
<feGaussianBlur stdDeviation="1.00929"/>
<feComposite in2="hardAlpha" operator="out"/>
<feColorMatrix type="matrix" values="0 0 0 0 0 0 0 0 0 0 0 0 0 0 0 0 0 0 0.25 0"/>
<feBlend mode="normal" in2="BackgroundImageFix" result="effect1_dropShadow_418_2132"/>
<feBlend mode="normal" in="SourceGraphic" in2="effect1_dropShadow_418_2132" result="shape"/>
</filter>
</defs>
</svg>
