<svg width="104" height="51" viewBox="0 0 104 51" fill="none" xmlns="http://www.w3.org/2000/svg">
<g filter="url(#filter0_d_418_2134)">
<g filter="url(#filter1_d_418_2134)">
<mask id="path-1-outside-1_418_2134" maskUnits="userSpaceOnUse" x="2" y="8" width="97" height="39" fill="black">
<rect fill="white" x="2" y="8" width="97" height="39"/>
<path d="M3.3125 12.2188H10.3906V23.0938L20.7031 23.0234V12.3125L27.7812 12.2656V23.3047H29L29.5625 29.75H27.7812V40.0625C27.3125 41.4688 26.7266 42.4062 26.0234 42.875C25.3203 43.3281 24.2188 43.6797 22.7188 43.9297C21.2344 44.1641 19.7422 44.2812 18.2422 44.2812L18.1953 38.0938C19.6328 38 20.5234 37.4062 20.8672 36.3125V29.7734L12.2656 29.75L10.3906 26.7734V43.5312L3.35938 44.7266L3.3125 12.2188ZM43.9062 9.78125L49.6719 11.9609L48.9922 14.2109H58.2734L57.3125 21.1484L52.25 21.1719L60.2891 42.7109L54.0781 44.8438L45.8281 22.8125L36.6172 44.6562L30.3125 42.7344L39.4062 21.0781L32.7734 21.0547L33.2891 14.2109H42.0547L43.9062 9.78125ZM46.8828 33.6875L50.4688 37.625L43.8359 44.2812L40.2266 40.3906L46.8828 33.6875ZM80.7266 11.3984L85.5781 16.25L75.1719 26.7266C78.6719 33.0859 80.9141 36.3594 81.8984 36.5469C82.8984 36.7344 84.0859 36.25 85.4609 35.0938L88.0156 41.3984C86.3125 43.2266 84.6875 44.2188 83.1406 44.375C81.6094 44.5469 80.0703 44.3516 78.5234 43.7891C76.9766 43.2266 74.1094 39.0234 69.9219 31.1797L68.4922 32.7266V44.0234H61.8125V12.125H68.4688L68.4922 23.6328L80.7266 11.3984ZM97.0859 11.9609L97.0625 43.9766H90.0078L89.9844 13.0391L97.0859 11.9609Z"/>
</mask>
<path d="M3.3125 12.2188H10.3906V23.0938L20.7031 23.0234V12.3125L27.7812 12.2656V23.3047H29L29.5625 29.75H27.7812V40.0625C27.3125 41.4688 26.7266 42.4062 26.0234 42.875C25.3203 43.3281 24.2188 43.6797 22.7188 43.9297C21.2344 44.1641 19.7422 44.2812 18.2422 44.2812L18.1953 38.0938C19.6328 38 20.5234 37.4062 20.8672 36.3125V29.7734L12.2656 29.75L10.3906 26.7734V43.5312L3.35938 44.7266L3.3125 12.2188ZM43.9062 9.78125L49.6719 11.9609L48.9922 14.2109H58.2734L57.3125 21.1484L52.25 21.1719L60.2891 42.7109L54.0781 44.8438L45.8281 22.8125L36.6172 44.6562L30.3125 42.7344L39.4062 21.0781L32.7734 21.0547L33.2891 14.2109H42.0547L43.9062 9.78125ZM46.8828 33.6875L50.4688 37.625L43.8359 44.2812L40.2266 40.3906L46.8828 33.6875ZM80.7266 11.3984L85.5781 16.25L75.1719 26.7266C78.6719 33.0859 80.9141 36.3594 81.8984 36.5469C82.8984 36.7344 84.0859 36.25 85.4609 35.0938L88.0156 41.3984C86.3125 43.2266 84.6875 44.2188 83.1406 44.375C81.6094 44.5469 80.0703 44.3516 78.5234 43.7891C76.9766 43.2266 74.1094 39.0234 69.9219 31.1797L68.4922 32.7266V44.0234H61.8125V12.125H68.4688L68.4922 23.6328L80.7266 11.3984ZM97.0859 11.9609L97.0625 43.9766H90.0078L89.9844 13.0391L97.0859 11.9609Z" fill="white"/>
<path d="M3.3125 12.2188V11.2188H2.31106L2.3125 12.2202L3.3125 12.2188ZM10.3906 12.2188H11.3906V11.2188H10.3906V12.2188ZM10.3906 23.0938H9.39062V24.1006L10.3974 24.0937L10.3906 23.0938ZM20.7031 23.0234L20.7099 24.0234L21.7031 24.0166V23.0234H20.7031ZM20.7031 12.3125L20.6965 11.3125L19.7031 11.3191V12.3125H20.7031ZM27.7812 12.2656H28.7812V11.259L27.7746 11.2656L27.7812 12.2656ZM27.7812 23.3047H26.7812V24.3047H27.7812V23.3047ZM29 23.3047L29.9962 23.2177L29.9165 22.3047H29V23.3047ZM29.5625 29.75V30.75H30.6536L30.5587 29.6631L29.5625 29.75ZM27.7812 29.75V28.75H26.7812V29.75H27.7812ZM27.7812 40.0625L28.7299 40.3787L28.7812 40.2248V40.0625H27.7812ZM26.0234 42.875L26.5651 43.7156L26.5717 43.7114L26.5781 43.7071L26.0234 42.875ZM22.7188 43.9297L22.8747 44.9175L22.8831 44.9161L22.7188 43.9297ZM18.2422 44.2812L17.2422 44.2888L17.2497 45.2812H18.2422V44.2812ZM18.1953 38.0938L18.1302 37.0959L17.1882 37.1573L17.1953 38.1013L18.1953 38.0938ZM20.8672 36.3125L21.8212 36.6123L21.8672 36.4659V36.3125H20.8672ZM20.8672 29.7734H21.8672V28.7762L20.8699 28.7734L20.8672 29.7734ZM12.2656 29.75L11.4195 30.283L11.7127 30.7485L12.2629 30.75L12.2656 29.75ZM10.3906 26.7734L11.2367 26.2404L9.39062 23.3097V26.7734H10.3906ZM10.3906 43.5312L10.5582 44.5171L11.3906 44.3756V43.5312H10.3906ZM3.35938 44.7266L2.35938 44.728L2.36108 45.9106L3.52697 45.7124L3.35938 44.7266ZM3.3125 13.2188H10.3906V11.2188H3.3125V13.2188ZM9.39062 12.2188V23.0938H11.3906V12.2188H9.39062ZM10.3974 24.0937L20.7099 24.0234L20.6963 22.0235L10.3838 22.0938L10.3974 24.0937ZM21.7031 23.0234V12.3125H19.7031V23.0234H21.7031ZM20.7097 13.3125L27.7879 13.2656L27.7746 11.2656L20.6965 11.3125L20.7097 13.3125ZM26.7812 12.2656V23.3047H28.7812V12.2656H26.7812ZM27.7812 24.3047H29V22.3047H27.7812V24.3047ZM28.0038 23.3916L28.5663 29.8369L30.5587 29.6631L29.9962 23.2177L28.0038 23.3916ZM29.5625 28.75H27.7812V30.75H29.5625V28.75ZM26.7812 29.75V40.0625H28.7812V29.75H26.7812ZM26.8326 39.7463C26.3867 41.0837 25.8921 41.7607 25.4687 42.0429L26.5781 43.7071C27.561 43.0518 28.2383 41.8538 28.7299 40.3787L26.8326 39.7463ZM25.4817 42.0344C24.9517 42.376 24.012 42.7004 22.5544 42.9433L22.8831 44.9161C24.4255 44.659 25.6889 44.2802 26.5651 43.7156L25.4817 42.0344ZM22.5628 42.9419C21.1299 43.1682 19.6899 43.2812 18.2422 43.2812V45.2812C19.7945 45.2812 21.3388 45.16 22.8747 44.9174L22.5628 42.9419ZM19.2422 44.2737L19.1953 38.0862L17.1953 38.1013L17.2422 44.2888L19.2422 44.2737ZM18.2604 39.0916C19.0958 39.0371 19.863 38.8322 20.4961 38.4102C21.1454 37.9773 21.5861 37.3604 21.8212 36.6123L19.9132 36.0127C19.8045 36.3584 19.6281 36.5852 19.3867 36.7461C19.1292 36.9178 18.7323 37.0566 18.1302 37.0959L18.2604 39.0916ZM21.8672 36.3125V29.7734H19.8672V36.3125H21.8672ZM20.8699 28.7734L12.2683 28.75L12.2629 30.75L20.8645 30.7734L20.8699 28.7734ZM13.1117 29.217L11.2367 26.2404L9.5445 27.3064L11.4195 30.283L13.1117 29.217ZM9.39062 26.7734V43.5312H11.3906V26.7734H9.39062ZM10.223 42.5454L3.19178 43.7407L3.52697 45.7124L10.5582 44.5171L10.223 42.5454ZM4.35937 44.7251L4.3125 12.2173L2.3125 12.2202L2.35938 44.728L4.35937 44.7251ZM43.9062 9.78125L44.2599 8.84586L43.3562 8.50423L42.9836 9.39559L43.9062 9.78125ZM49.6719 11.9609L50.6292 12.2501L50.8993 11.3559L50.0255 11.0255L49.6719 11.9609ZM48.9922 14.2109L48.0349 13.9218L47.6455 15.2109H48.9922V14.2109ZM58.2734 14.2109L59.264 14.3481L59.4215 13.2109H58.2734V14.2109ZM57.3125 21.1484L57.3171 22.1484L58.1841 22.1444L58.303 21.2856L57.3125 21.1484ZM52.25 21.1719L52.2454 20.1719L50.8119 20.1785L51.3131 21.5215L52.25 21.1719ZM60.2891 42.7109L60.6138 43.6567L61.585 43.3232L61.2259 42.3613L60.2891 42.7109ZM54.0781 44.8438L53.1416 45.1944L53.4828 46.1055L54.4029 45.7895L54.0781 44.8438ZM45.8281 22.8125L46.7646 22.4618L45.8832 20.1081L44.9067 22.424L45.8281 22.8125ZM36.6172 44.6562L36.3256 45.6128L37.1882 45.8758L37.5386 45.0448L36.6172 44.6562ZM30.3125 42.7344L29.3905 42.3472L28.9618 43.3681L30.0209 43.6909L30.3125 42.7344ZM39.4062 21.0781L40.3283 21.4653L40.9085 20.0834L39.4098 20.0781L39.4062 21.0781ZM32.7734 21.0547L31.7763 20.9796L31.6955 22.0509L32.7699 22.0547L32.7734 21.0547ZM33.2891 14.2109V13.2109H32.3616L32.2919 14.1358L33.2891 14.2109ZM42.0547 14.2109V15.2109H42.7205L42.9773 14.5966L42.0547 14.2109ZM46.8828 33.6875L47.6222 33.0142L46.9141 32.2367L46.1732 32.9829L46.8828 33.6875ZM50.4688 37.625L51.1771 38.3309L51.8496 37.656L51.2081 36.9517L50.4688 37.625ZM43.8359 44.2812L43.1028 44.9614L43.8102 45.7238L44.5443 44.9871L43.8359 44.2812ZM40.2266 40.3906L39.517 39.686L38.8407 40.3671L39.4935 41.0707L40.2266 40.3906ZM43.5526 10.7166L49.3183 12.8963L50.0255 11.0255L44.2599 8.84586L43.5526 10.7166ZM48.7146 11.6718L48.0349 13.9218L49.9495 14.5001L50.6292 12.2501L48.7146 11.6718ZM48.9922 15.2109H58.2734V13.2109H48.9922V15.2109ZM57.2829 14.0737L56.322 21.0112L58.303 21.2856L59.264 14.3481L57.2829 14.0737ZM57.3079 20.1484L52.2454 20.1719L52.2546 22.1719L57.3171 22.1484L57.3079 20.1484ZM51.3131 21.5215L59.3522 43.0606L61.2259 42.3613L53.1869 20.8222L51.3131 21.5215ZM59.9643 41.7651L53.7533 43.898L54.4029 45.7895L60.6138 43.6567L59.9643 41.7651ZM55.0146 44.4931L46.7646 22.4618L44.8916 23.1632L53.1416 45.1944L55.0146 44.4931ZM44.9067 22.424L35.6958 44.2677L37.5386 45.0448L46.7496 23.201L44.9067 22.424ZM36.9088 43.6997L30.6041 41.7778L30.0209 43.6909L36.3256 45.6128L36.9088 43.6997ZM31.2345 43.1215L40.3283 21.4653L38.4842 20.691L29.3905 42.3472L31.2345 43.1215ZM39.4098 20.0781L32.777 20.0547L32.7699 22.0547L39.4027 22.0781L39.4098 20.0781ZM33.7706 21.1298L34.2862 14.2861L32.2919 14.1358L31.7763 20.9796L33.7706 21.1298ZM33.2891 15.2109H42.0547V13.2109H33.2891V15.2109ZM42.9773 14.5966L44.8289 10.1669L42.9836 9.39559L41.132 13.8253L42.9773 14.5966ZM46.1435 34.3608L49.7294 38.2983L51.2081 36.9517L47.6222 33.0142L46.1435 34.3608ZM49.7604 36.9191L43.1276 43.5754L44.5443 44.9871L51.1771 38.3309L49.7604 36.9191ZM44.569 43.6011L40.9597 39.7105L39.4935 41.0707L43.1028 44.9614L44.569 43.6011ZM40.9361 41.0952L47.5924 34.3921L46.1732 32.9829L39.517 39.686L40.9361 41.0952ZM80.7266 11.3984L81.4337 10.6913L80.7266 9.98422L80.0195 10.6913L80.7266 11.3984ZM85.5781 16.25L86.2876 16.9547L86.99 16.2476L86.2852 15.5429L85.5781 16.25ZM75.1719 26.7266L74.4624 26.0218L73.9349 26.5529L74.2958 27.2087L75.1719 26.7266ZM81.8984 36.5469L81.7113 37.5292L81.7141 37.5297L81.8984 36.5469ZM85.4609 35.0938L86.3877 34.7182L85.8708 33.4425L84.8173 34.3284L85.4609 35.0938ZM88.0156 41.3984L88.7473 42.0801L89.1818 41.6137L88.9424 41.0229L88.0156 41.3984ZM83.1406 44.375L83.0401 43.38L83.0291 43.3812L83.1406 44.375ZM69.9219 31.1797L70.804 30.7087L70.1418 29.4684L69.1875 30.5009L69.9219 31.1797ZM68.4922 32.7266L67.7578 32.0478L67.4922 32.3352V32.7266H68.4922ZM68.4922 44.0234V45.0234H69.4922V44.0234H68.4922ZM61.8125 44.0234H60.8125V45.0234H61.8125V44.0234ZM61.8125 12.125V11.125H60.8125V12.125H61.8125ZM68.4688 12.125L69.4688 12.123L69.4667 11.125H68.4688V12.125ZM68.4922 23.6328L67.4922 23.6348L67.4971 26.0421L69.1993 24.3399L68.4922 23.6328ZM80.0195 12.1055L84.871 16.9571L86.2852 15.5429L81.4337 10.6913L80.0195 12.1055ZM84.8686 15.5453L74.4624 26.0218L75.8814 27.4313L86.2876 16.9547L84.8686 15.5453ZM74.2958 27.2087C76.0509 30.3977 77.5048 32.8393 78.6535 34.5163C79.2261 35.3523 79.7404 36.0242 80.1929 36.5095C80.419 36.7521 80.6475 36.9674 80.8764 37.1364C81.0939 37.297 81.3779 37.4657 81.7113 37.5292L82.0855 35.5645C82.1729 35.5812 82.1715 35.6066 82.0643 35.5274C81.9685 35.4567 81.8329 35.3357 81.6558 35.1457C81.3016 34.7659 80.852 34.1868 80.3035 33.3861C79.21 31.7896 77.7928 29.4148 76.048 26.2444L74.2958 27.2087ZM81.7141 37.5297C83.1713 37.803 84.6671 37.0678 86.1045 35.8591L84.8173 34.3284C83.5047 35.4322 82.6256 35.6658 82.0827 35.564L81.7141 37.5297ZM84.5341 35.4693L87.0888 41.774L88.9424 41.0229L86.3877 34.7182L84.5341 35.4693ZM87.2839 40.7168C85.6516 42.469 84.2362 43.2593 83.0401 43.3801L83.2411 45.3699C85.1388 45.1782 86.9734 43.9842 88.7473 42.0801L87.2839 40.7168ZM83.0291 43.3812C81.6614 43.5348 80.2773 43.3628 78.8652 42.8493L78.1817 44.7289C79.8634 45.3404 81.5573 45.559 83.2522 45.3688L83.0291 43.3812ZM78.8652 42.8493C78.7131 42.794 78.3787 42.5765 77.8494 42.005C77.3445 41.46 76.7416 40.6813 76.039 39.6513C74.6353 37.5936 72.8913 34.6185 70.804 30.7087L69.0397 31.6506C71.1399 35.5846 72.9233 38.6329 74.3868 40.7784C75.1178 41.8499 75.7834 42.7177 76.3821 43.3641C76.9563 43.984 77.5603 44.5029 78.1817 44.7289L78.8652 42.8493ZM69.1875 30.5009L67.7578 32.0478L69.2266 33.4053L70.6562 31.8584L69.1875 30.5009ZM67.4922 32.7266V44.0234H69.4922V32.7266H67.4922ZM68.4922 43.0234H61.8125V45.0234H68.4922V43.0234ZM62.8125 44.0234V12.125H60.8125V44.0234H62.8125ZM61.8125 13.125H68.4688V11.125H61.8125V13.125ZM67.4688 12.127L67.4922 23.6348L69.4922 23.6308L69.4688 12.123L67.4688 12.127ZM69.1993 24.3399L81.4337 12.1055L80.0195 10.6913L67.7851 22.9257L69.1993 24.3399ZM97.0859 11.9609L98.0859 11.9617L98.0868 10.7975L96.9358 10.9723L97.0859 11.9609ZM97.0625 43.9766V44.9766H98.0618L98.0625 43.9773L97.0625 43.9766ZM90.0078 43.9766L89.0078 43.9773L89.0086 44.9766H90.0078V43.9766ZM89.9844 13.0391L89.8343 12.0504L88.9837 12.1795L88.9844 13.0398L89.9844 13.0391ZM96.0859 11.9602L96.0625 43.9758L98.0625 43.9773L98.0859 11.9617L96.0859 11.9602ZM97.0625 42.9766H90.0078V44.9766H97.0625V42.9766ZM91.0078 43.9758L90.9844 13.0383L88.9844 13.0398L89.0078 43.9773L91.0078 43.9758ZM90.1345 14.0277L97.236 12.9496L96.9358 10.9723L89.8343 12.0504L90.1345 14.0277Z" fill="black" mask="url(#path-1-outside-1_418_2134)"/>
</g>
</g>
<defs>
<filter id="filter0_d_418_2134" x="0" y="0" width="105.5" height="50.1055" filterUnits="userSpaceOnUse" color-interpolation-filters="sRGB">
<feFlood flood-opacity="0" result="BackgroundImageFix"/>
<feColorMatrix in="SourceAlpha" type="matrix" values="0 0 0 0 0 0 0 0 0 0 0 0 0 0 0 0 0 0 127 0" result="hardAlpha"/>
<feOffset dy="2"/>
<feGaussianBlur stdDeviation="1"/>
<feComposite in2="hardAlpha" operator="out"/>
<feColorMatrix type="matrix" values="0 0 0 0 0 0 0 0 0 0 0 0 0 0 0 0 0 0 0.25 0"/>
<feBlend mode="normal" in2="BackgroundImageFix" result="effect1_dropShadow_418_2134"/>
<feBlend mode="normal" in="SourceGraphic" in2="effect1_dropShadow_418_2134" result="shape"/>
</filter>
<filter id="filter1_d_418_2134" x="0.311035" y="8.50439" width="99.7759" height="41.6011" filterUnits="userSpaceOnUse" color-interpolation-filters="sRGB">
<feFlood flood-opacity="0" result="BackgroundImageFix"/>
<feColorMatrix in="SourceAlpha" type="matrix" values="0 0 0 0 0 0 0 0 0 0 0 0 0 0 0 0 0 0 127 0" result="hardAlpha"/>
<feOffset dy="2"/>
<feGaussianBlur stdDeviation="1"/>
<feComposite in2="hardAlpha" operator="out"/>
<feColorMatrix type="matrix" values="0 0 0 0 0 0 0 0 0 0 0 0 0 0 0 0 0 0 0.25 0"/>
<feBlend mode="normal" in2="BackgroundImageFix" result="effect1_dropShadow_418_2134"/>
<feBlend mode="normal" in="SourceGraphic" in2="effect1_dropShadow_418_2134" result="shape"/>
</filter>
</defs>
</svg>
